#N canvas 733 442 450 300 12;
#X obj 73 63 delwrite~ chorus 1000;
#X obj 55 245 *~ 1;
#X obj 112 165 +~;
#X obj 112 191 vd~ chorus 1000;
#X obj 260 85 netreceive 8128 1;
#X obj 112 137 *~;
#X obj 113 216 *~;
#X floatatom 186 96 5 0 0 0 - - -;
#X floatatom 181 131 5 0 0 0 - - -;
#X floatatom 286 157 5 0 0 0 - - -;
#X floatatom 344 164 5 0 0 0 - - -;
#X obj 257 114 route 0 1 2 3;
#X obj 111 110 osc~ 5;
#X obj 205 169 sig~;
#X obj 48 36 inlet~;
#X obj 54 277 outlet~;
#X connect 1 0 15 0;
#X connect 2 0 3 0;
#X connect 3 0 6 0;
#X connect 4 0 11 0;
#X connect 5 0 2 0;
#X connect 6 0 1 0;
#X connect 7 0 12 0;
#X connect 8 0 5 1;
#X connect 9 0 13 0;
#X connect 10 0 6 1;
#X connect 11 0 7 0;
#X connect 11 1 8 0;
#X connect 11 2 9 0;
#X connect 11 3 10 0;
#X connect 12 0 5 0;
#X connect 13 0 2 1;
#X connect 14 0 0 0;
#X connect 14 0 1 0;
