#N canvas 568 253 450 300 12;
#X obj 87 34 inlet~;
#X obj 149 84 delwrite~ delay 500;
#X obj 59 141 *~ \$2;
#X obj 146 150 delread~ delay \$1;
#X obj 175 247 outlet~;
#X obj 260 198 netreceive 8124 1;
#X connect 0 0 1 0;
#X connect 0 0 4 0;
#X connect 2 0 1 0;
#X connect 3 0 2 0;
#X connect 3 0 4 0;
#X connect 5 0 3 0;
#X connect 5 0 2 0;
