#N canvas 566 294 450 300 12;
#X obj 87 34 inlet~;
#X obj 149 84 delwrite~ delay 500;
#X obj 175 247 outlet~;
#X obj 307 113 netreceive 8124 1;
#X obj 273 245 print received;
#X obj 321 159 route 0 1;
#X obj 145 150 delread~ delay;
#X obj 59 141 *~;
#X connect 0 0 1 0;
#X connect 0 0 2 0;
#X connect 3 0 4 0;
#X connect 3 0 5 0;
#X connect 5 0 6 0;
#X connect 5 1 7 0;
#X connect 6 0 2 0;
#X connect 6 0 7 0;
#X connect 7 0 1 0;
