#N canvas 693 269 450 300 12;
#X obj 85 98 *~;
#X obj 199 86 netreceive 8129 1;
#X obj 204 114 route 0;
#X floatatom 137 98 5 0 0 0 - - -;
#X obj 89 143 clip~ -0.5 0.5;
#X obj 93 55 inlet~;
#X obj 89 188 outlet~;
#X connect 0 0 4 0;
#X connect 1 0 2 0;
#X connect 2 0 3 0;
#X connect 3 0 0 1;
#X connect 4 0 6 0;
#X connect 5 0 0 0;
