#N canvas 0 23 607 486 12;
#X obj 38 14 inlet~;
#X obj 28 418 outlet~;
#X obj 94 120 delwrite~ phase1 100;
#X obj 92 181 delwrite~ phase2 100;
#X obj 299 170 cos~;
#X obj 345 172 +~ 0.5;
#X obj 350 209 wrap~;
#X obj 349 242 cos~;
#X obj 332 355 vd~ phase2;
#X obj 261 276 vd~ phase1;
#X obj 375 428 s~ output;
#X obj 58 384 r~ output;
#X obj 460 75 netreceive 8125 1;
#X obj 474 137 route 0 1 2;
#X obj 301 398 *~;
#X obj 252 311 *~;
#X obj 299 211 *~;
#X obj 298 243 +~;
#X obj 347 300 +~;
#X obj 348 270 *~;
#X obj 303 134 phasor~;
#X obj 415 32 print received;
#X connect 0 0 2 0;
#X connect 0 0 3 0;
#X connect 0 0 1 0;
#X connect 4 0 16 0;
#X connect 5 0 6 0;
#X connect 6 0 7 0;
#X connect 7 0 19 0;
#X connect 8 0 10 0;
#X connect 8 0 14 0;
#X connect 9 0 10 0;
#X connect 9 0 15 0;
#X connect 11 0 1 0;
#X connect 12 0 13 0;
#X connect 12 0 21 0;
#X connect 13 0 20 0;
#X connect 13 1 16 0;
#X connect 13 1 17 0;
#X connect 13 1 18 0;
#X connect 13 1 19 0;
#X connect 13 2 14 0;
#X connect 13 2 15 0;
#X connect 14 0 3 0;
#X connect 15 0 2 0;
#X connect 16 0 17 0;
#X connect 17 0 9 0;
#X connect 18 0 8 0;
#X connect 19 0 18 0;
#X connect 20 0 4 0;
#X connect 20 0 5 0;
