#N canvas 557 282 450 300 12;
#X obj 45 16 adc~ 2;
#N canvas 227 419 450 300 delay001 0;
#X obj 87 34 inlet~;
#X obj 149 84 delwrite~ delay 500;
#X obj 59 141 *~ \$2;
#X obj 146 150 delread~ delay \$1;
#X obj 175 247 outlet~;
#X obj 260 198 netreceive 8124 1;
#X connect 0 0 1 0;
#X connect 2 0 1 0;
#X connect 3 0 2 0;
#X connect 3 0 4 0;
#X connect 5 0 3 0;
#X connect 5 0 2 0;
#X restore 12 64 pd delay001;
#N canvas 0 154 620 467 phasor 1;
#X obj 38 14 inlet~;
#X obj 28 418 outlet~;
#X obj 94 120 delwrite~ phase1 100;
#X obj 92 181 delwrite~ phase2 100;
#X obj 299 170 cos~;
#X obj 345 172 +~ 0.5;
#X obj 350 209 wrap~;
#X obj 349 242 cos~;
#X obj 332 355 vd~ phase2;
#X obj 261 276 vd~ phase1;
#X obj 375 428 s~ output;
#X obj 58 384 r~ output;
#X obj 303 134 phasor~ \$1;
#X obj 460 75 netreceive 8125 1;
#X obj 299 211 *~ \$2;
#X obj 298 243 +~ \$2;
#X obj 348 270 *~ \$2;
#X obj 347 300 +~ \$2;
#X obj 252 311 *~ \$3;
#X obj 301 398 *~ \$3;
#X connect 0 0 2 0;
#X connect 0 0 3 0;
#X connect 0 0 1 0;
#X connect 4 0 14 0;
#X connect 5 0 6 0;
#X connect 6 0 7 0;
#X connect 7 0 16 0;
#X connect 8 0 10 0;
#X connect 8 0 19 0;
#X connect 9 0 10 0;
#X connect 9 0 18 0;
#X connect 11 0 1 0;
#X connect 12 0 4 0;
#X connect 12 0 5 0;
#X connect 13 0 12 0;
#X connect 13 0 15 1;
#X connect 13 0 14 1;
#X connect 13 0 16 1;
#X connect 13 0 17 1;
#X connect 13 0 18 1;
#X connect 13 0 19 1;
#X connect 14 0 15 0;
#X connect 15 0 9 0;
#X connect 16 0 17 0;
#X connect 17 0 8 0;
#X connect 18 0 2 0;
#X connect 19 0 3 0;
#X restore 105 64 pd phasor;
#X obj 51 189 dac~;
#X text 108 85 phasor=2;
#X text 32 83 delay=1;
#X text 96 17 adc=0;
#X text 87 190 dac=3;
